<svg version="1.1" xmlns="http://www.w3.org/2000/svg" xmlns:xlink="http://www.w3.org/1999/xlink" width="447" height="286"><defs/><g transform="translate(0,0)"><g><rect fill="#FFFFFF" stroke="none" x="0" y="0" width="447" height="286"/></g><g transform="translate(0,0) matrix(1,0,0,1,132,46)"><g><g transform="translate(0,0) scale(1,2.2)"><g><path fill="#FFFFFF" stroke="none" d="M 100 50 A 50 50 0 1 0 99.99997500000208 50.04999999166668 Z"/><g transform="scale(1,0.45454545454545453)"><path fill="none" stroke="#333333" d="M 50 0 C 77.614235 0 100 49.248683000000014 100 110.00000000000001 C 100 170.75131700000003 77.614235 220.00000000000003 50 220.00000000000003 C 22.385765000000003 220.00000000000003 0 170.75131700000003 0 110.00000000000001 C 0 49.248683000000014 22.385765000000003 0 50 0 Z" stroke-miterlimit="10" stroke-width="2"/></g></g></g></g></g><g transform="translate(0,0) matrix(1,0,0,1,300,46)"><g><g transform="translate(0,0) scale(1,2.2)"><g><path fill="#FFFFFF" stroke="none" d="M 100 50 A 50 50 0 1 0 99.99997500000208 50.04999999166668 Z"/><g transform="scale(1,0.45454545454545453)"><path fill="none" stroke="#333333" d="M 50 0 C 77.614235 0 100 49.248683000000014 100 110.00000000000001 C 100 170.75131700000003 77.614235 220.00000000000003 50 220.00000000000003 C 22.385765000000003 220.00000000000003 0 170.75131700000003 0 110.00000000000001 C 0 49.248683000000014 22.385765000000003 0 50 0 Z" stroke-miterlimit="10" stroke-width="2"/></g></g></g></g></g><g transform="scale(1,1) matrix(1,0,0,1,132,100) translate(2,0)"><text fill="rgb(0, 255, 0)" stroke="none" font-family="Arial" font-size="18px" font-style="normal" font-weight="normal" text-decoration="none" x="39" y="21">A</text><text fill="#000000" stroke="none" font-family="Arial" font-size="24px" font-style="normal" font-weight="normal" text-decoration="none" x="50" y="21">&#160;</text></g><g transform="scale(1,1) matrix(1,0,0,1,132,180) translate(2,0)"><text fill="rgb(153, 0, 255)" stroke="none" font-family="Arial" font-size="18px" font-style="normal" font-weight="normal" text-decoration="none" x="39.5" y="15">B</text><text fill="#000000" stroke="none" font-family="Arial" font-size="18px" font-style="normal" font-weight="normal" text-decoration="none" x="51.5" y="15">&#160;</text></g><g transform="scale(1,1) matrix(1,0,0,1,274,71.5) translate(2,0)"><text fill="rgb(0, 255, 0)" stroke="none" font-family="Arial" font-size="18px" font-style="normal" font-weight="normal" text-decoration="none" x="68" y="15">a</text></g><g transform="scale(1,1) matrix(1,0,0,1,275,112.5) translate(2,7)"><text fill="rgb(255, 0, 0)" stroke="none" font-family="Arial" font-size="18px" font-style="normal" font-weight="normal" text-decoration="none" x="68" y="15">b</text></g><g transform="scale(1,1) matrix(1,0,0,1,275,158.5) translate(2,7)"><text fill="rgb(153, 0, 255)" stroke="none" font-family="Arial" font-size="18px" font-style="normal" font-weight="normal" text-decoration="none" x="68.5" y="15">c</text></g><g transform="scale(1,1) matrix(1,0,0,1,275,202.5) translate(2,7)"><text fill="rgb(153, 0, 255)" stroke="none" font-family="Arial" font-size="18px" font-style="normal" font-weight="normal" text-decoration="none" x="68" y="15">d</text></g><g transform="matrix(1,0,0,1,187.5,78.5)"><g transform="translate(0,0)"><g transform="translate(-188,-114) translate(0.5,35.5) matrix(1,0,0,1,0,0)"><g><path fill="none" stroke="#00ff00" d="M 192 114 M 192 114 L 199.83007820169462 112.35991605234774 M 199.83007820169462 112.35991605234774 M 207.66015640338924 110.71983210469548 L 215.49023460508386 109.07974815704323 M 215.49023460508386 109.07974815704323 M 223.32031280677847 107.43966420939097 L 231.1503910084731 105.79958026173871 M 231.1503910084731 105.79958026173871 M 238.9804692101677 104.15949631408645 L 246.81054741186233 102.51941236643421 M 246.81054741186233 102.51941236643421 M 254.64062561355695 100.87932841878195 L 262.47070381525157 99.23924447112971 M 262.47070381525157 99.23924447112971 M 270.3007820169462 97.59916052347745 L 278.1308602186408 95.95907657582521 M 278.1308602186408 95.95907657582521 M 285.9609384203354 94.31899262817296 L 293.79101662203004 92.67890868052072 M 293.79101662203004 92.67890868052072 M 301.62109482372466 91.03882473286846 L 309.4511730254193 89.39874078521622 M 309.4511730254193 89.39874078521622 M 317.2812512271139 87.75865683756398 L 325.1113294288085 86.11857288991172 M 325.1113294288085 86.11857288991172 M 332.94140763050314 84.47848894225947 L 340 83" stroke-miterlimit="10" stroke-width="2"/></g></g></g></g><g transform="matrix(1,0,0,1,188.5,184.5)"><g transform="translate(0,0)"><g transform="translate(-191,-188) translate(2.5,3.5) matrix(1,0,0,1,0,0)"><g><path fill="none" stroke="#9900ff" d="M 193 189 L 338 220" stroke-miterlimit="10" stroke-width="2"/></g></g></g></g><g transform="matrix(1,0,0,1,188.5,172.5)"><g transform="translate(0,0)"><g transform="translate(-340,-130) translate(151.5,-42.5) matrix(1,0,0,1,0,0)"><g><path fill="none" stroke="#9900ff" d="M 338 177 M 338 177 L 330.0319596583065 177.71437603063458 M 330.0319596583065 177.71437603063458 M 322.063919316613 178.42875206126917 L 314.0958789749195 179.14312809190375 M 314.0958789749195 179.14312809190375 M 306.127838633226 179.85750412253833 L 298.1597982915325 180.5718801531729 M 298.1597982915325 180.5718801531729 M 290.19175794983903 181.2862561838075 L 282.22371760814553 182.00063221444208 M 282.22371760814553 182.00063221444208 M 274.25567726645204 182.71500824507666 L 266.28763692475854 183.42938427571124 M 266.28763692475854 183.42938427571124 M 258.31959658306505 184.14376030634583 L 250.35155624137158 184.8581363369804 M 250.35155624137158 184.8581363369804 M 242.38351589967812 185.57251236761502 L 234.41547555798465 186.2868883982496 M 234.41547555798465 186.2868883982496 M 226.44743521629118 187.0012644288842 L 218.4793948745977 187.7156404595188 M 218.4793948745977 187.7156404595188 M 210.51135453290422 188.4300164901534 L 202.54331419121073 189.144392520788 M 202.54331419121073 189.144392520788 M 194.57527384951726 189.8587685514226 L 193 190" stroke-miterlimit="10" stroke-width="2"/></g></g></g></g><g transform="matrix(1,0,0,1,189.5,124.5)"><g transform="translate(0,0)"><g transform="translate(-339,-84) translate(149.5,-40.5) matrix(1,0,0,1,0,0)"><g><path fill="none" stroke="#9900ff" d="M 337 129 M 337 129 L 329.62303856151686 132.09522857558733 M 329.62303856151686 132.09522857558733 M 322.24607712303373 135.19045715117466 L 314.8691156845506 138.28568572676198 M 314.8691156845506 138.28568572676198 M 307.49215424606746 141.3809143023493 L 300.1151928075843 144.47614287793664 M 300.1151928075843 144.47614287793664 M 292.7382313691012 147.57137145352397 L 285.36126993061805 150.6666000291113 M 285.36126993061805 150.6666000291113 M 277.9843084921349 153.76182860469862 L 270.6073470536518 156.85705718028595 M 270.6073470536518 156.85705718028595 M 263.23038561516864 159.9522857558733 L 255.85342417668548 163.04751433146063 M 255.85342417668548 163.04751433146063 M 248.47646273820231 166.14274290704796 L 241.09950129971915 169.23797148263532 M 241.09950129971915 169.23797148263532 M 233.722539861236 172.33320005822264 L 226.34557842275282 175.42842863381 M 226.34557842275282 175.42842863381 M 218.96861698426966 178.52365720939733 L 211.5916555457865 181.61888578498468 M 211.5916555457865 181.61888578498468 M 204.21469410730333 184.71411436057204 L 196.83773266882017 187.80934293615937 M 196.83773266882017 187.80934293615937" stroke-miterlimit="10" stroke-width="2"/></g></g></g></g><g transform="matrix(1,0,0,1,187.5,110.5)"><g transform="translate(0,0)"><g transform="translate(-341,-176) translate(153.5,65.5) matrix(1,0,0,1,0,0)"><g><path fill="none" stroke="#00ff00" d="M 338 130 M 338 130 L 330.04189046581655 129.182386006762 M 330.04189046581655 129.182386006762 M 322.0837809316331 128.36477201352398 L 314.12567139744965 127.54715802028595 M 314.12567139744965 127.54715802028595 M 306.1675618632662 126.72954402704792 L 298.20945232908275 125.9119300338099 M 298.20945232908275 125.9119300338099 M 290.2513427948993 125.09431604057187 L 282.29323326071585 124.27670204733384 M 282.29323326071585 124.27670204733384 M 274.3351237265324 123.45908805409582 L 266.37701419234895 122.64147406085779 M 266.37701419234895 122.64147406085779 M 258.4189046581655 121.82386006761976 L 250.46079512398205 121.00624607438174 M 250.46079512398205 121.00624607438174 M 242.5026855897986 120.18863208114371 L 234.54457605561515 119.37101808790568 M 234.54457605561515 119.37101808790568 M 226.5864665214317 118.55340409466766 L 218.62835698724825 117.73579010142963 M 218.62835698724825 117.73579010142963 M 210.6702474530648 116.9181761081916 L 202.71213791888135 116.10056211495358 M 202.71213791888135 116.10056211495358 M 194.7540283846979 115.28294812171555 L 192 115" stroke-miterlimit="10" stroke-width="2"/></g></g></g></g><g transform="translate(0,0) matrix(1,0,0,1,375,69)"><g><g transform="translate(0,0) scale(0.5,0.25)"><g><g transform="scale(2,4)"><path fill="#FFFFFF" stroke="#333333" d="M 0 12.5 L 12.5 0 L 12.5 7.5 L 50 7.5 L 50 17.5 L 12.5 17.5 L 12.5 25 L 0 12.5 L 0 12.5 Z" stroke-miterlimit="10" stroke-width="2"/></g></g></g></g></g><g transform="translate(0,0) matrix(1,0,0,1,377,165)"><g><g transform="translate(0,0) scale(0.5,0.25)"><g><g transform="scale(2,4)"><path fill="#FFFFFF" stroke="#333333" d="M 0 12.5 L 12.5 0 L 12.5 7.5 L 50 7.5 L 50 17.5 L 12.5 17.5 L 12.5 25 L 0 12.5 L 0 12.5 Z" stroke-miterlimit="10" stroke-width="2"/></g></g></g></g></g></g></svg>