<svg version="1.1" xmlns="http://www.w3.org/2000/svg" xmlns:xlink="http://www.w3.org/1999/xlink" width="445" height="286"><defs/><g transform="translate(0,0)"><g><rect fill="#FFFFFF" stroke="none" x="0" y="0" width="445" height="286"/></g><g transform="translate(0,0) matrix(1,0,0,1,132,46)"><g><g transform="translate(0,0) scale(1,2.2)"><g><path fill="#FFFFFF" stroke="none" d="M 100 50 A 50 50 0 1 0 99.99997500000208 50.04999999166668 Z"/><g transform="scale(1,0.45454545454545453)"><path fill="none" stroke="#333333" d="M 50 0 C 77.614235 0 100 49.248683000000014 100 110.00000000000001 C 100 170.75131700000003 77.614235 220.00000000000003 50 220.00000000000003 C 22.385765000000003 220.00000000000003 0 170.75131700000003 0 110.00000000000001 C 0 49.248683000000014 22.385765000000003 0 50 0 Z" stroke-miterlimit="10" stroke-width="2"/></g></g></g></g></g><g transform="translate(0,0) matrix(1,0,0,1,300,46)"><g><g transform="translate(0,0) scale(1,2.2)"><g><path fill="#FFFFFF" stroke="none" d="M 100 50 A 50 50 0 1 0 99.99997500000208 50.04999999166668 Z"/><g transform="scale(1,0.45454545454545453)"><path fill="none" stroke="#333333" d="M 50 0 C 77.614235 0 100 49.248683000000014 100 110.00000000000001 C 100 170.75131700000003 77.614235 220.00000000000003 50 220.00000000000003 C 22.385765000000003 220.00000000000003 0 170.75131700000003 0 110.00000000000001 C 0 49.248683000000014 22.385765000000003 0 50 0 Z" stroke-miterlimit="10" stroke-width="2"/></g></g></g></g></g><g transform="scale(1,1) matrix(1,0,0,1,132,100) translate(2,0)"><text fill="#000000" stroke="none" font-family="Arial" font-size="18px" font-style="normal" font-weight="normal" text-decoration="none" x="39" y="21">A</text><text fill="#000000" stroke="none" font-family="Arial" font-size="24px" font-style="normal" font-weight="normal" text-decoration="none" x="50" y="21">&#160;</text></g><g transform="scale(1,1) matrix(1,0,0,1,132,180) translate(2,0)"><text fill="#000000" stroke="none" font-family="Arial" font-size="18px" font-style="normal" font-weight="normal" text-decoration="none" x="39.5" y="15">B</text><text fill="#000000" stroke="none" font-family="Arial" font-size="18px" font-style="normal" font-weight="normal" text-decoration="none" x="51.5" y="15">&#160;</text></g><g transform="scale(1,1) matrix(1,0,0,1,274,71.5) translate(2,0)"><text fill="#000000" stroke="none" font-family="Arial" font-size="18px" font-style="normal" font-weight="normal" text-decoration="none" x="68" y="15">a</text></g><g transform="scale(1,1) matrix(1,0,0,1,275,112.5) translate(2,7)"><text fill="#000000" stroke="none" font-family="Arial" font-size="18px" font-style="normal" font-weight="normal" text-decoration="none" x="68" y="15">b</text></g><g transform="scale(1,1) matrix(1,0,0,1,275,158.5) translate(2,7)"><text fill="#000000" stroke="none" font-family="Arial" font-size="18px" font-style="normal" font-weight="normal" text-decoration="none" x="68.5" y="15">c</text></g><g transform="scale(1,1) matrix(1,0,0,1,275,202.5) translate(2,7)"><text fill="#000000" stroke="none" font-family="Arial" font-size="18px" font-style="normal" font-weight="normal" text-decoration="none" x="68" y="15">d</text></g><g transform="matrix(1,0,0,1,187.5,78.5)"><g transform="translate(0,0)"><g transform="translate(-188,-114) translate(0.5,35.5) matrix(1,0,0,1,0,0)"><g><path fill="none" stroke="#000000" d="M 192 114 L 340 83" stroke-miterlimit="10" stroke-width="2"/></g></g></g></g><g transform="matrix(1,0,0,1,188.5,184.5)"><g transform="translate(0,0)"><g transform="translate(-191,-188) translate(2.5,3.5) matrix(1,0,0,1,0,0)"><g><path fill="none" stroke="#000000" d="M 193 189 L 338 220" stroke-miterlimit="10" stroke-width="2"/></g></g></g></g><g transform="matrix(1,0,0,1,188.5,172.5)"><g transform="translate(0,0)"><g transform="translate(-340,-130) translate(151.5,-42.5) matrix(1,0,0,1,0,0)"><g><path fill="none" stroke="#000000" d="M 338 177 L 193 190" stroke-miterlimit="10" stroke-width="2"/></g></g></g></g><g transform="matrix(1,0,0,1,189.5,124.5)"><g transform="translate(0,0)"><g transform="translate(-339,-84) translate(149.5,-40.5) matrix(1,0,0,1,0,0)"><g><path fill="none" stroke="#000000" d="M 337 129 L 194 189" stroke-miterlimit="10" stroke-width="2"/></g></g></g></g><g transform="matrix(1,0,0,1,187.5,110.5)"><g transform="translate(0,0)"><g transform="translate(-341,-176) translate(153.5,65.5) matrix(1,0,0,1,0,0)"><g><path fill="none" stroke="#000000" d="M 338 130 L 192 115" stroke-miterlimit="10" stroke-width="2"/></g></g></g></g><g transform="translate(0,0) matrix(1,0,0,1,375,69)"><g><g transform="translate(0,0) scale(0.5,0.25)"><g><g transform="scale(2,4)"><path fill="#FFFFFF" stroke="#333333" d="M 0 12.5 L 12.5 0 L 12.5 7.5 L 50 7.5 L 50 17.5 L 12.5 17.5 L 12.5 25 L 0 12.5 L 0 12.5 Z" stroke-miterlimit="10" stroke-width="2"/></g></g></g></g></g><g transform="translate(0,0) matrix(1,0,0,1,375,165)"><g><g transform="translate(0,0) scale(0.5,0.25)"><g><g transform="scale(2,4)"><path fill="#FFFFFF" stroke="#333333" d="M 0 12.5 L 12.5 0 L 12.5 7.5 L 50 7.5 L 50 17.5 L 12.5 17.5 L 12.5 25 L 0 12.5 L 0 12.5 Z" stroke-miterlimit="10" stroke-width="2"/></g></g></g></g></g></g></svg>